<svg xmlns="http://www.w3.org/2000/svg" width="381.445" height="367.445" viewBox="0 0 381.445 367.445">
  <g id="Group_696" data-name="Group 696" transform="translate(2932.722 -3926.278)">
    <path id="Path_8781" data-name="Path 8781" d="M19,0H151a19,19,0,0,1,19,19V151a19,19,0,0,1-19,19H19A19,19,0,0,1,0,151V19A19,19,0,0,1,19,0Z" transform="matrix(0.998, -0.07, 0.07, 0.998, -2932.722, 3938.136)" fill="#16384f"/>
    <path id="Path_8780" data-name="Path 8780" d="M10.366-90.374q1.752,5.986,3.869,13.505T18.761-61.32q2.409,8.03,4.891,16.06T28.47-30.368q1.9-7.446,3.869-16.206t3.723-18.1q1.752-9.344,3.431-18.615t3.139-17.885H66.284q-5.11,25.4-11.753,51.538T40.15,0H19.272q-5.11-14.016-9.928-29.419T-.146-60.3Q-4.818-44.822-9.49-29.419T-19.272,0H-40.15q-7.738-23.506-14.381-49.64t-11.753-51.538H-41.61q1.46,8.614,3.212,17.885t3.65,18.615q1.9,9.344,3.869,18.1t4.015,16.206q2.628-7.154,5.11-15.184t4.818-16.06q2.336-8.03,4.307-15.476t3.577-13.286Z" transform="matrix(0.998, -0.07, 0.07, 0.998, -2839.44, 4067.946)" fill="#3ed86c"/>
    <path id="Path_8783" data-name="Path 8783" d="M19,0H151a19,19,0,0,1,19,19V151a19,19,0,0,1-19,19H19A19,19,0,0,1,0,151V19A19,19,0,0,1,19,0Z" transform="translate(-2730 3929)" fill="#16384f"/>
    <path id="Path_8782" data-name="Path 8782" d="M-26.68-50.315a45.671,45.671,0,0,0,1.813,13.34,30.473,30.473,0,0,0,5.22,10.222,23.1,23.1,0,0,0,8.338,6.6A26.271,26.271,0,0,0,0-17.835a26.4,26.4,0,0,0,11.237-2.32,22.944,22.944,0,0,0,8.41-6.6,30.473,30.473,0,0,0,5.22-10.222,45.671,45.671,0,0,0,1.813-13.34,46.412,46.412,0,0,0-1.812-13.413,30.389,30.389,0,0,0-5.22-10.295,22.944,22.944,0,0,0-8.41-6.6A26.4,26.4,0,0,0,0-82.94a25.594,25.594,0,0,0-11.31,2.393,23.828,23.828,0,0,0-8.338,6.67,30.389,30.389,0,0,0-5.22,10.3A45.866,45.866,0,0,0-26.68-50.315Zm76.705,0a61.835,61.835,0,0,1-3.842,22.692A46.663,46.663,0,0,1,35.67-11.238,43.162,43.162,0,0,1,19.792-1.3,57.683,57.683,0,0,1,0,2.03,56.213,56.213,0,0,1-19.43-1.3a44.676,44.676,0,0,1-15.95-9.933A46.442,46.442,0,0,1-46.11-27.623a60.81,60.81,0,0,1-3.915-22.692,58.875,58.875,0,0,1,4.06-22.693A48.348,48.348,0,0,1-35.018-89.465,45.023,45.023,0,0,1-19.068-99.47,54.769,54.769,0,0,1,0-102.805,56.213,56.213,0,0,1,19.43-99.47,44.186,44.186,0,0,1,35.38-89.465,47.193,47.193,0,0,1,46.11-73.007,60.81,60.81,0,0,1,50.025-50.315Z" transform="translate(-2644.975 4064.805)" fill="#d3efff"/>
    <path id="Path_8786" data-name="Path 8786" d="M19,0H151a19,19,0,0,1,19,19V151a19,19,0,0,1-19,19H19A19,19,0,0,1,0,151V19A19,19,0,0,1,19,0Z" transform="translate(-2925.504 4116.529) rotate(1)" fill="#16384f"/>
    <path id="Path_8785" data-name="Path 8785" d="M-7.373-102.346q22.776,0,34.894,8.1T39.639-69.058q0,10.658-4.891,17.3T20.659-41.318q3.066,3.8,6.424,8.687t6.643,10.22q3.285,5.329,6.351,11.1T45.771,0H20.221Q17.447-4.964,14.6-10.074T8.76-20Q5.767-24.82,2.847-29.127t-5.84-7.811H-14.235V0H-37.011V-99.718a129.12,129.12,0,0,1,15.4-2.044Q-13.651-102.346-7.373-102.346Zm1.314,19.418q-2.482,0-4.453.146t-3.723.292v27.448h6.424q12.848,0,18.4-3.212T16.133-69.2q0-7.446-5.621-10.585T-6.059-82.928Z" transform="translate(-2846.885 4254.269) rotate(1)" fill="#d3efff"/>
    <path id="Path_8784" data-name="Path 8784" d="M19,0H151a19,19,0,0,1,19,19V151a19,19,0,0,1-19,19H19A19,19,0,0,1,0,151V19A19,19,0,0,1,19,0Z" transform="matrix(0.998, -0.07, 0.07, 0.998, -2732.722, 4124.137)" fill="#16384f"/>
    <path id="Path_8787" data-name="Path 8787" d="M-19.345-18.542q1.606.146,3.723.219t5.037.073q17.082,0,25.331-8.614T23-50.662q0-15.914-7.884-24.09T-9.855-82.928q-2.336,0-4.818.073a45.539,45.539,0,0,0-4.672.365ZM46.5-50.662q0,13.14-4.088,22.922A42.453,42.453,0,0,1,30.806-11.534,49.507,49.507,0,0,1,12.483-1.9,84.948,84.948,0,0,1-11.753,1.314q-6.132,0-14.308-.511a116.89,116.89,0,0,1-16.06-2.117v-98.55A134.173,134.173,0,0,1-25.7-101.835q8.541-.511,14.673-.511a88.609,88.609,0,0,1,23.579,2.92,48.234,48.234,0,0,1,18.177,9.2,40.879,40.879,0,0,1,11.68,16.06Q46.5-64.386,46.5-50.662Z" transform="matrix(0.998, -0.07, 0.07, 0.998, -2640.363, 4253.355)" fill="#3ed86c"/>
  </g>
</svg>
